<svg xmlns="http://www.w3.org/2000/svg" viewBox="0 0 720 720"><defs><style>.cls-1{fill:none;stroke:#231f20;stroke-linecap:round;stroke-linejoin:round;stroke-width:11px;}.cls-2{fill:#231f20;}</style></defs><title>W Illustration for Blog</title><g id="Layer_1" data-name="Layer 1"><polygon class="cls-1" points="360 116.55 104.02 302.53 201.79 603.46 518.21 603.46 615.98 302.53 360 116.55"/><line class="cls-1" x1="360" y1="116.55" x2="360" y2="227.47"/><line class="cls-1" x1="201.79" y1="603.45" x2="273.87" y2="492.53"/><line class="cls-1" x1="518.21" y1="603.45" x2="446.13" y2="492.53"/><line class="cls-1" x1="615.98" y1="302.53" x2="499.36" y2="328.71"/><line class="cls-1" x1="104.02" y1="302.53" x2="220.64" y2="328.71"/><polygon class="cls-1" points="360 227.47 446.13 492.54 220.65 328.71 499.36 328.71 273.87 492.54 360 227.47"/><circle class="cls-2" cx="615.98" cy="302.53" r="29.29"/><circle class="cls-2" cx="499.36" cy="328.71" r="29.29"/><circle class="cls-2" cx="518.21" cy="603.45" r="29.29"/><circle class="cls-2" cx="273.87" cy="492.53" r="29.29"/><circle class="cls-2" cx="446.13" cy="492.53" r="29.29"/><circle class="cls-2" cx="360" cy="226.47" r="29.29"/><circle class="cls-2" cx="104.02" cy="302.53" r="29.29"/><circle class="cls-2" cx="220.64" cy="328.71" r="29.29"/><circle class="cls-2" cx="201.79" cy="603.45" r="29.29"/><circle class="cls-2" cx="359.26" cy="125.8" r="29.29"/></g></svg>